<svg width="24" height="24" viewBox="0 0 24 24" fill="none" xmlns="http://www.w3.org/2000/svg">
<rect x="2" y="2" width="20" height="20" rx="4" fill="#6783F7" style="fill:#6783F7;fill:color(display-p3 0.4039 0.5137 0.9686);fill-opacity:1;"/>
<path d="M9.31832 14.7429H7.86215V13.5429H9.31832V12.6429H7.83331V11.3571H9.31832V7H12.9515C13.9223 7 14.7009 7.2381 15.2872 7.71429C15.8735 8.19048 16.1666 8.89048 16.1666 9.81429C16.1666 10.4429 16.0273 10.9667 15.7485 11.3857C15.4794 11.8048 15.0997 12.119 14.6096 12.3286C14.1194 12.5381 13.5571 12.6429 12.9227 12.6429H10.7601V13.5429H13.5859V14.7429H10.7601V17H9.31832V14.7429ZM12.7353 11.3571C13.3793 11.3571 13.8695 11.2381 14.2059 11C14.5519 10.7619 14.7249 10.3667 14.7249 9.81429C14.7249 9.28095 14.5519 8.89524 14.2059 8.65714C13.8695 8.40952 13.3793 8.28571 12.7353 8.28571H10.7601V11.3571H12.7353Z" fill="#C0CBFC" style="fill:#C0CBFC;fill:color(display-p3 0.7529 0.7961 0.9882);fill-opacity:1;"/>
</svg>
