<svg width="24" height="24" viewBox="0 0 24 24" fill="none" xmlns="http://www.w3.org/2000/svg">
<rect y="2" width="20" height="20" rx="4" fill="white" fill-opacity="0.3" style="fill:white;fill:white;fill-opacity:0.3;"/>
<path d="M7.31838 14.7429H5.86221V13.5429H7.31838V12.6429H5.83337V11.3571H7.31838V7H10.9516C11.9224 7 12.7009 7.2381 13.2872 7.71429C13.8736 8.19048 14.1667 8.89048 14.1667 9.81429C14.1667 10.4429 14.0273 10.9667 13.7486 11.3857C13.4795 11.8048 13.0998 12.119 12.6096 12.3286C12.1194 12.5381 11.5571 12.6429 10.9228 12.6429H8.76013V13.5429H11.586V14.7429H8.76013V17H7.31838V14.7429ZM10.7353 11.3571C11.3793 11.3571 11.8695 11.2381 12.2059 11C12.5519 10.7619 12.725 10.3667 12.725 9.81429C12.725 9.28095 12.5519 8.89524 12.2059 8.65714C11.8695 8.40952 11.3793 8.28571 10.7353 8.28571H8.76013V11.3571H10.7353Z" fill="white" fill-opacity="0.7" style="fill:white;fill:white;fill-opacity:0.7;"/>
</svg>
