<svg width="24" height="24" viewBox="0 0 24 24" fill="none" xmlns="http://www.w3.org/2000/svg">
<path d="M0 13.624V18.75C0 19.8546 0.895431 20.75 2 20.75H18C19.1046 20.75 20 19.8546 20 18.75V13.624C19.8849 13.6903 19.762 13.7459 19.6325 13.7891L10.6325 16.7891C10.2219 16.926 9.77808 16.926 9.36754 16.7891L0.367545 13.7891C0.237957 13.7459 0.115063 13.6903 0 13.624Z" fill="white" fill-opacity="0.3" style="fill:white;fill:white;fill-opacity:0.3;"/>
<path d="M13.8495 5.82215C14.0589 6.32768 14.1666 6.86949 14.1666 7.41667H12.2897C12.2897 7.11597 12.2305 6.81823 12.1154 6.54042C12.0004 6.26262 11.8317 6.0102 11.6191 5.79758C11.4064 5.58495 11.154 5.41629 10.8762 5.30122C10.5984 5.18615 10.3007 5.12693 9.99998 5.12693C9.69929 5.12693 9.40154 5.18615 9.12373 5.30122C8.84593 5.41629 8.59351 5.58495 8.38089 5.79758C8.16827 6.0102 7.99961 6.26262 7.88454 6.54042C7.76947 6.81823 7.71024 7.11597 7.71024 7.41667H5.83331C5.83331 6.86949 5.94109 6.32768 6.15048 5.82215C6.35988 5.31663 6.66679 4.8573 7.0537 4.47039C7.44061 4.08348 7.89994 3.77656 8.40547 3.56717C8.91099 3.35777 9.45281 3.25 9.99998 3.25C10.5472 3.25 11.089 3.35777 11.5945 3.56717C12.1 3.77656 12.5593 4.08348 12.9463 4.47039C13.3332 4.8573 13.6401 5.31663 13.8495 5.82215Z" fill="white" fill-opacity="0.7" style="fill:white;fill:white;fill-opacity:0.7;"/>
<path d="M2 7.41667H18C19.1046 7.41667 20 8.3121 20 9.41667V11.6959C20 12.1263 19.7246 12.5085 19.3162 12.6446L10.3162 15.6446C10.111 15.713 9.88904 15.713 9.68377 15.6446L0.683773 12.6446C0.27543 12.5085 0 12.1263 0 11.6959V9.41667C0 8.3121 0.895431 7.41667 2 7.41667Z" fill="white" fill-opacity="0.7" style="fill:white;fill:white;fill-opacity:0.7;"/>
</svg>
