<svg width="24" height="24" viewBox="0 0 24 24" fill="none" xmlns="http://www.w3.org/2000/svg">
<path d="M14.1666 7.41667C14.1666 6.86949 14.0589 6.32768 13.8495 5.82215C13.6401 5.31663 13.3332 4.8573 12.9463 4.47039C12.5593 4.08348 12.1 3.77656 11.5945 3.56717C11.089 3.35777 10.5472 3.25 9.99998 3.25C9.45281 3.25 8.91099 3.35777 8.40547 3.56717C7.89994 3.77656 7.44061 4.08348 7.0537 4.47039C6.66679 4.8573 6.35988 5.31663 6.15048 5.82215C5.94109 6.32768 5.83331 6.86949 5.83331 7.41667H7.71024C7.71024 7.11597 7.76947 6.81823 7.88454 6.54042C7.99961 6.26262 8.16827 6.0102 8.38089 5.79758C8.59351 5.58495 8.84593 5.41629 9.12373 5.30122C9.40154 5.18615 9.69929 5.12693 9.99998 5.12693C10.3007 5.12693 10.5984 5.18615 10.8762 5.30122C11.154 5.41629 11.4064 5.58495 11.6191 5.79758C11.8317 6.0102 12.0004 6.26262 12.1154 6.54042C12.2305 6.81822 12.2897 7.11597 12.2897 7.41667H14.1666Z" fill="white" fill-opacity="0.7" style="fill:white;fill:white;fill-opacity:0.7;"/>
<path d="M18 7.41667H2C0.895431 7.41667 0 8.3121 0 9.41667V11.6959C0 12.1263 0.27543 12.5085 0.683773 12.6446L9.68377 15.6446C9.88904 15.713 10.111 15.713 10.3162 15.6446L12.0734 15.0589C12.525 12.1923 15.0065 10 18 10C18.7013 10 19.3744 10.1203 20 10.3414V9.41667C20 8.3121 19.1046 7.41667 18 7.41667Z" fill="white" fill-opacity="0.7" style="fill:white;fill:white;fill-opacity:0.7;"/>
<path d="M12.0089 16.3303L10.6325 16.7891C10.2219 16.926 9.77808 16.926 9.36754 16.7891L0.367545 13.7891C0.237957 13.7459 0.115063 13.6904 0 13.624V18.75C0 19.8546 0.895431 20.75 2 20.75H14.3338C12.9956 19.7156 12.1065 18.1282 12.0089 16.3303Z" fill="white" fill-opacity="0.3" style="fill:white;fill:white;fill-opacity:0.3;"/>
<path d="M23 16C23 18.7614 20.7614 21 18 21C15.2386 21 13 18.7614 13 16C13 13.2386 15.2386 11 18 11C20.7614 11 23 13.2386 23 16Z" fill="white" fill-opacity="0.3" style="fill:white;fill:white;fill-opacity:0.3;"/>
<path d="M17.4071 19V16.5287H15V15.4773H17.4071V13H18.5929V15.4773H21V16.5287H18.5929V19H17.4071Z" fill="white" fill-opacity="0.7" style="fill:white;fill:white;fill-opacity:0.7;"/>
</svg>
