<svg width="24" height="24" viewBox="0 0 24 24" fill="none" xmlns="http://www.w3.org/2000/svg">
<path d="M8.15275 5.55553C8.20368 5.65919 8.23732 5.77021 8.25239 5.88434L8.53082 10.0243V10.0243L8.66903 12.1051C8.67046 12.3191 8.70403 12.5317 8.76867 12.736C8.9356 13.1326 9.33716 13.3846 9.77405 13.367L16.4313 12.9315C16.7196 12.9268 16.998 13.0346 17.2052 13.2313C17.3779 13.3952 17.4894 13.6096 17.5246 13.8402L17.5364 13.9802C17.2609 17.7949 14.4592 20.9767 10.6524 21.798C6.84555 22.6193 2.94186 20.8843 1.06071 17.5349C0.518387 16.5618 0.17965 15.4923 0.0643819 14.389C0.0162286 14.0624 -0.00497452 13.7325 0.000979226 13.4025C-0.00496595 9.31273 2.90747 5.77696 6.98433 4.92457C7.47501 4.84816 7.95603 5.10792 8.15275 5.55553Z" fill="white" fill-opacity="0.7" style="fill:white;fill:white;fill-opacity:0.7;"/>
<path d="M10.87 2.00082C15.4298 2.11683 19.2623 5.39579 19.9999 9.81229L19.9929 9.84488V9.84488L19.9728 9.89227L19.9756 10.0224C19.9651 10.1947 19.8986 10.3605 19.7839 10.4945C19.6645 10.634 19.5013 10.729 19.3215 10.7659L19.2119 10.7809L11.5312 11.2786C11.2757 11.3038 11.0213 11.2214 10.8313 11.052C10.673 10.9107 10.5717 10.7201 10.5431 10.5147L10.0276 2.84506C10.0186 2.81913 10.0186 2.79102 10.0276 2.76508C10.0346 2.55367 10.1277 2.35384 10.286 2.21023C10.4443 2.06662 10.6546 1.9912 10.87 2.00082Z" fill="white" fill-opacity="0.3" style="fill:white;fill:white;fill-opacity:0.3;"/>
</svg>
