<svg width="24" height="24" viewBox="0 0 24 24" fill="none" xmlns="http://www.w3.org/2000/svg">
<path d="M1 13.624V18.75C1 19.8546 1.89543 20.75 3 20.75H19C20.1046 20.75 21 19.8546 21 18.75V13.624C20.8849 13.6904 20.762 13.7459 20.6325 13.7891L11.6325 16.7891C11.2219 16.926 10.7781 16.926 10.3675 16.7891L1.36754 13.7891C1.23796 13.7459 1.11506 13.6904 1 13.624Z" fill="#6783F7" style="fill:#6783F7;fill:color(display-p3 0.4039 0.5137 0.9686);fill-opacity:1;"/>
<path d="M14.8495 5.82215C15.0589 6.32768 15.1666 6.86949 15.1666 7.41667H13.2897C13.2897 7.11597 13.2305 6.81823 13.1154 6.54042C13.0004 6.26262 12.8317 6.0102 12.6191 5.79758C12.4064 5.58495 12.154 5.41629 11.8762 5.30122C11.5984 5.18615 11.3007 5.12693 11 5.12693C10.6993 5.12693 10.4015 5.18615 10.1237 5.30122C9.84593 5.41629 9.59351 5.58495 9.38089 5.79758C9.16827 6.0102 8.99961 6.26262 8.88454 6.54042C8.76947 6.81823 8.71024 7.11597 8.71024 7.41667H6.83331C6.83331 6.86949 6.94109 6.32768 7.15048 5.82215C7.35988 5.31663 7.66679 4.8573 8.0537 4.47039C8.44061 4.08348 8.89994 3.77656 9.40547 3.56717C9.91099 3.35777 10.4528 3.25 11 3.25C11.5472 3.25 12.089 3.35777 12.5945 3.56717C13.1 3.77656 13.5593 4.08348 13.9463 4.47039C14.3332 4.8573 14.6401 5.31663 14.8495 5.82215Z" fill="white" style="fill:white;fill:white;fill-opacity:1;"/>
<path d="M3 7.41667H19C20.1046 7.41667 21 8.3121 21 9.41667V11.6959C21 12.1263 20.7246 12.5085 20.3162 12.6446L11.3162 15.6446C11.111 15.713 10.889 15.713 10.6838 15.6446L1.68377 12.6446C1.27543 12.5085 1 12.1263 1 11.6959V9.41667C1 8.3121 1.89543 7.41667 3 7.41667Z" fill="white" style="fill:white;fill:white;fill-opacity:1;"/>
</svg>
