<svg width="23" height="18" viewBox="0 0 23 18" fill="none" xmlns="http://www.w3.org/2000/svg">
<path d="M12.0089 13.0803L10.6325 13.5391C10.2219 13.676 9.77808 13.676 9.36754 13.5391L0.367545 10.5391C0.237957 10.4959 0.115063 10.4404 0 10.374V15.5C0 16.6046 0.895431 17.5 2 17.5H14.3338C12.9956 16.4656 12.1065 14.8782 12.0089 13.0803Z" fill="#6783F7" style="fill:#6783F7;fill:color(display-p3 0.4039 0.5137 0.9686);fill-opacity:1;"/>
<path d="M23 12.75C23 15.5114 20.7614 17.75 18 17.75C15.2386 17.75 13 15.5114 13 12.75C13 9.9886 15.2386 7.75 18 7.75C20.7614 7.75 23 9.9886 23 12.75Z" fill="#6783F7" style="fill:#6783F7;fill:color(display-p3 0.4039 0.5137 0.9686);fill-opacity:1;"/>
<path d="M17.4071 15.75V13.2787H15V12.2273H17.4071V9.75H18.5929V12.2273H21V13.2787H18.5929V15.75H17.4071Z" fill="#C0CBFC" style="fill:#C0CBFC;fill:color(display-p3 0.7529 0.7961 0.9882);fill-opacity:1;"/>
<path fill-rule="evenodd" clip-rule="evenodd" d="M14.1666 4.16667C14.1666 3.61949 14.0589 3.07768 13.8495 2.57215C13.6401 2.06663 13.3332 1.6073 12.9463 1.22039C12.5593 0.83348 12.1 0.52656 11.5945 0.31717C11.089 0.10777 10.5472 0 9.99998 0C9.45281 0 8.91099 0.10777 8.40547 0.31717C7.89994 0.52656 7.44061 0.83348 7.0537 1.22039C6.66679 1.6073 6.35988 2.06663 6.15048 2.57215C5.94109 3.07768 5.83331 3.61949 5.83331 4.16667H2C0.895431 4.16667 0 5.0621 0 6.16667V8.4459C0 8.8763 0.27543 9.2585 0.683773 9.3946L9.68377 12.3946C9.88904 12.463 10.111 12.463 10.3162 12.3946L12.0734 11.8089C12.525 8.9423 15.0065 6.75 18 6.75C18.7013 6.75 19.3744 6.8703 20 7.0914V6.16667C20 5.0621 19.1046 4.16667 18 4.16667H14.1666ZM7.88454 3.29042C7.76947 3.56823 7.71024 3.86597 7.71024 4.16667H12.2897C12.2897 3.86597 12.2305 3.56822 12.1154 3.29042C12.0004 3.01262 11.8317 2.7602 11.6191 2.54758C11.4064 2.33495 11.154 2.16629 10.8762 2.05122C10.5984 1.93615 10.3007 1.87693 9.99998 1.87693C9.69929 1.87693 9.40154 1.93615 9.12373 2.05122C8.84593 2.16629 8.59351 2.33495 8.38089 2.54758C8.16827 2.7602 7.99961 3.01262 7.88454 3.29042Z" fill="#C0CBFC" style="fill:#C0CBFC;fill:color(display-p3 0.7529 0.7961 0.9882);fill-opacity:1;"/>
</svg>
