<svg width="80" height="32" viewBox="0 0 80 32" fill="none" xmlns="http://www.w3.org/2000/svg">
<g clip-path="url(#clip0_15_1014)">
<path d="M0 32V14.6667H23.5263V0H80V32H0Z" fill="white" style="fill:white;fill:white;fill-opacity:1;"/>
<path d="M5.63672 28V19.8789H2.25293V18.1973H10.9346V19.8789H7.53027V28H5.63672ZM12.3359 28V18.1973H16.8887C18.5293 18.1768 19.9307 19.3525 19.8965 20.8633C19.8965 22.1143 19.3496 22.9209 18.2285 23.3379C19.2471 23.3379 19.7529 23.8027 19.7529 24.7256V28H17.8662V25.1973C17.8662 24.4932 17.6611 24.2881 16.957 24.2881H14.2227V28H12.3359ZM14.2227 22.6406H16.3281C17.4287 22.6406 18.0029 22.1484 18.0029 21.2256C18.0029 20.3232 17.4492 19.8789 16.3281 19.8789H14.2227V22.6406ZM28.6533 28L27.7715 25.6895H23.6562L22.7744 28H20.7852L24.6611 18.1973H26.876L30.6562 28H28.6533ZM24.292 24.0078H27.1289L25.707 20.2891L24.292 24.0078ZM31.8867 28V18.1973H35.2432C38.2031 18.1836 40.2334 19.9404 40.2129 23.0986C40.2334 26.2637 38.2646 28.0205 35.3184 28H31.8867ZM33.7734 26.3184H35.1064C36.125 26.3184 36.918 26.0723 37.4785 25.5801C38.0459 25.0879 38.3262 24.2607 38.3262 23.0986C38.3262 21.9434 38.0459 21.1162 37.4785 20.624C36.918 20.125 36.125 19.8789 35.1064 19.8789H33.7734V26.3184ZM41.9902 28V18.1973H43.877V28H41.9902ZM52.4766 18.1973H54.3633V28H51.916L48.0605 20.7812V28H46.1738V18.1973H48.6211L52.4766 25.3818V18.1973ZM56.1133 23.0986C56.0791 20.248 58.0684 18.0195 60.9463 18.0605C63.4072 18.04 65.0342 19.5371 65.1436 21.5605H63.2568C63.0996 20.4463 62.3545 19.7422 61.0146 19.7422H60.8711C59.0664 19.7422 58.0068 21.0615 58.0068 23.0986C58.0068 25.1426 59.0664 26.4619 60.8711 26.4619H61.0146C62.2178 26.4619 63.291 25.7783 63.6055 24.6709L63.6328 24.5684H60.9463V22.8867H64.0225C64.7949 22.8867 65.2119 23.3105 65.2119 24.083V28H63.6055V27.0498C62.9834 27.7129 62.0605 28.1367 60.8027 28.1367C57.9932 28.1777 56.0791 25.9492 56.1133 23.0986Z" fill="#2C53F4" style="fill:#2C53F4;fill:color(display-p3 0.1725 0.3255 0.9569);fill-opacity:1;"/>
<path d="M44.9346 3.19727H47.8604V13H46.0078V5.28906L43.5742 13H41.5029L38.9941 5.26172V13H37.1484V3.19727H40.0879L42.5488 10.8877L44.9346 3.19727ZM49.6172 8.09863C49.5898 5.00879 51.5859 3.02637 54.375 3.06055C57.1641 3.02637 59.1738 5.00879 59.1396 8.09863C59.1738 11.1885 57.1641 13.1709 54.375 13.1367C51.5859 13.1709 49.5898 11.1885 49.6172 8.09863ZM54.3066 11.4619H54.4502C56.1934 11.4619 57.2461 10.1904 57.2461 8.09863C57.2461 6 56.1934 4.74219 54.4502 4.74219H54.3066C52.5635 4.74219 51.5107 6 51.5107 8.09863C51.5107 10.1904 52.5635 11.4619 54.3066 11.4619ZM60.8965 13V3.19727H68.3135V4.87891H62.7832V7.13477H67.4727V8.81641H62.7832V11.3184H68.457V13H60.8965ZM77.9795 13H75.751L73.4678 9.56152L71.1436 13H69.0176L72.4082 7.97559L69.2295 3.19727H71.4512L73.5293 6.32129L75.6416 3.19727H77.7676L74.5889 7.90723L77.9795 13Z" fill="#2C53F4" style="fill:#2C53F4;fill:color(display-p3 0.1725 0.3255 0.9569);fill-opacity:1;"/>
</g>
<defs>
<clipPath id="clip0_15_1014">
<rect width="80" height="32" fill="white" style="fill:white;fill:white;fill-opacity:1;"/>
</clipPath>
</defs>
</svg>
