<svg width="80" height="32" viewBox="0 0 80 32" fill="none" xmlns="http://www.w3.org/2000/svg">
<path d="M54.4502 11.4619H54.3066C52.5635 11.4619 51.5107 10.1904 51.5107 8.09864C51.5107 6.00001 52.5635 4.7422 54.3066 4.7422H54.4502C56.1934 4.7422 57.2461 6.00001 57.2461 8.09864C57.2461 10.1904 56.1934 11.4619 54.4502 11.4619Z" fill="white" style="fill:white;fill:white;fill-opacity:1;"/>
<path d="M14.2227 22.6406H16.3281C17.4287 22.6406 18.0029 22.1484 18.0029 21.2256C18.0029 20.3232 17.4492 19.8789 16.3281 19.8789H14.2227V22.6406Z" fill="white" style="fill:white;fill:white;fill-opacity:1;"/>
<path d="M27.1289 24.0078H24.292L25.707 20.2891L27.1289 24.0078Z" fill="white" style="fill:white;fill:white;fill-opacity:1;"/>
<path d="M33.7734 26.3184H35.1064C36.125 26.3184 36.918 26.0723 37.4785 25.5801C38.0459 25.0879 38.3262 24.2607 38.3262 23.0986C38.3262 21.9434 38.0459 21.1162 37.4785 20.624C36.918 20.125 36.125 19.8789 35.1064 19.8789H33.7734V26.3184Z" fill="white" style="fill:white;fill:white;fill-opacity:1;"/>
<path fill-rule="evenodd" clip-rule="evenodd" d="M0 14.6667V32H80V0H23.5263V14.6667H0ZM54.375 3.06055C51.5859 3.02638 49.5898 5.0088 49.6172 8.09864C49.5898 11.1885 51.5859 13.1709 54.375 13.1367C57.1641 13.1709 59.1738 11.1885 59.1396 8.09864C59.1738 5.0088 57.1641 3.02638 54.375 3.06055ZM44.9346 3.19727H47.8604V13H46.0078V5.28907L43.5742 13H41.5029L38.9941 5.26173V13H37.1484V3.19727H40.0879L42.5488 10.8877L44.9346 3.19727ZM60.9463 18.0606C58.0684 18.0195 56.0791 20.2481 56.1133 23.0986C56.0791 25.9492 57.9932 28.1777 60.8027 28.1367C62.0605 28.1367 62.9834 27.7129 63.6055 27.0498V28H65.2119V24.083C65.2119 23.3106 64.7949 22.8867 64.0225 22.8867H60.9463V24.5684H63.6328L63.6055 24.6709C63.291 25.7783 62.2178 26.4619 61.0146 26.4619H60.8711C59.0664 26.4619 58.0068 25.1426 58.0068 23.0986C58.0068 21.0615 59.0664 19.7422 60.8711 19.7422H61.0146C62.3545 19.7422 63.0996 20.4463 63.2568 21.5606H65.1436C65.0342 19.5371 63.4072 18.04 60.9463 18.0606ZM12.3359 28V18.1973H16.8887C18.5293 18.1768 19.9307 19.3525 19.8965 20.8633C19.8965 22.1143 19.3496 22.9209 18.2285 23.3379C19.2471 23.3379 19.7529 23.8027 19.7529 24.7256V28H17.8662V25.1973C17.8662 24.4932 17.6611 24.2881 16.957 24.2881H14.2227V28H12.3359ZM5.63672 28V19.8789H2.25293V18.1973H10.9346V19.8789H7.53027V28H5.63672ZM27.7715 25.6895L28.6533 28H30.6562L26.876 18.1973H24.6611L20.7852 28H22.7744L23.6562 25.6895H27.7715ZM31.8867 28V18.1973H35.2432C38.2031 18.1836 40.2334 19.9404 40.2129 23.0986C40.2334 26.2637 38.2646 28.0205 35.3184 28H31.8867ZM43.877 18.1973H41.9902V28H43.877V18.1973ZM52.4766 18.1973H54.3633V28H51.916L48.0605 20.7813V28H46.1738V18.1973H48.6211L52.4766 25.3818V18.1973ZM60.8965 3.19727H68.3135V4.87891H62.7832V7.13477H67.4727V8.81641H62.7832V11.3184H68.457V13H60.8965V3.19727ZM75.751 13H77.9795L74.5889 7.90723L77.7676 3.19727H75.6416L73.5293 6.3213L71.4512 3.19727H69.2295L72.4082 7.97559L69.0176 13H71.1436L73.4678 9.56153L75.751 13Z" fill="white" style="fill:white;fill:white;fill-opacity:1;"/>
</svg>
